<?xml version="1.0" standalone="no"?>
<!DOCTYPE svg PUBLIC "-//W3C//DTD SVG 20010904//EN"
 "http://www.w3.org/TR/2001/REC-SVG-20010904/DTD/svg10.dtd">
<svg version="1.0" xmlns="http://www.w3.org/2000/svg"
 width="225.000000pt" height="225.000000pt" viewBox="0 0 225.000000 225.000000"
 preserveAspectRatio="xMidYMid meet">
<metadata>
Created by potrace 1.16, written by Peter Selinger 2001-2019
</metadata>
<g transform="translate(0.000000,225.000000) scale(0.100000,-0.100000)"
fill="#000000" stroke="none">
<path d="M494 2050 c-21 -8 -84 -75 -84 -89 0 -5 -16 -12 -35 -15 -49 -10
-110 -70 -125 -125 -14 -52 -14 -48 56 -268 l56 -173 -31 -30 c-42 -42 -47
-82 -21 -161 29 -85 69 -147 140 -212 55 -51 79 -66 162 -100 l37 -15 3 -210
3 -209 35 -69 c107 -209 378 -245 537 -71 63 70 79 117 88 260 6 99 9 109 32
127 19 15 41 20 87 20 61 0 62 0 100 -46 121 -145 346 -121 440 46 26 47 30
64 30 125 -1 154 -111 265 -263 265 -85 0 -152 -31 -208 -94 l-41 -46 -80 0
c-148 0 -252 -62 -313 -185 -28 -58 -32 -78 -38 -180 -5 -89 -10 -118 -23
-132 -25 -25 -83 -22 -111 5 -21 21 -22 32 -25 207 -3 171 -2 186 15 191 128
42 244 141 303 259 29 58 35 81 35 133 0 59 -2 66 -32 92 l-32 29 59 178 c33
98 60 196 60 217 0 85 -62 160 -144 173 -26 4 -37 12 -47 34 -27 68 -133 100
-197 60 -126 -79 -74 -264 75 -264 50 0 87 22 118 71 23 36 36 39 75 15 30
-17 50 -51 50 -85 0 -11 -26 -101 -57 -200 -57 -176 -59 -180 -95 -199 -39
-20 -78 -63 -78 -86 0 -32 -56 -116 -95 -143 -135 -93 -303 -39 -361 116 -25
70 -50 101 -87 113 -32 11 -34 15 -95 202 -56 170 -62 194 -52 224 12 36 34
59 66 69 17 5 26 0 42 -28 29 -49 66 -70 122 -70 55 0 92 20 121 67 28 45 22
127 -12 163 -46 49 -110 67 -165 44z m100 -81 c53 -42 23 -122 -46 -122 -61 0
-89 74 -46 120 27 29 57 29 92 2z m446 1 c47 -47 15 -123 -51 -123 -63 0 -90
72 -44 118 29 30 68 32 95 5z m-586 -671 c14 -11 26 -28 26 -37 0 -28 56 -117
96 -152 150 -131 384 -86 473 91 17 34 31 68 31 75 0 21 38 42 66 36 63 -12
49 -112 -31 -220 -78 -107 -181 -162 -315 -169 -70 -4 -97 -1 -149 17 -141 47
-251 165 -285 303 -5 21 -1 33 18 52 30 30 36 31 70 4z m1381 -292 c170 -96
112 -351 -84 -365 -218 -16 -291 269 -96 371 45 24 132 21 180 -6z m-365 -171
l0 -53 -60 -6 c-64 -5 -116 -31 -140 -69 -9 -15 -16 -64 -20 -138 -5 -94 -11
-124 -31 -164 -78 -158 -288 -194 -417 -72 -71 66 -77 88 -80 314 l-3 202 60
0 61 0 0 -187 c0 -177 1 -188 22 -220 58 -85 188 -83 245 3 13 20 19 57 24
143 6 127 21 169 78 227 51 52 106 73 189 74 l72 0 0 -54z"/>
<path d="M1684 944 c-69 -34 -86 -128 -34 -188 78 -88 219 -26 207 92 -5 49
-28 79 -74 98 -41 18 -60 17 -99 -2z"/>
</g>
</svg>
